ffmpeg started on 2025-10-01 at 11:07:04
Report written to "D:\Convert\FFMetrics\reports\ssim_report-6.txt"
Log level: 32
Command line:
ffmpeg -hide_banner -nostdin -i "F:\\\xc0\xed\xe8\xec\xe5\\\xce\xed\xe3\xee\xe8\xed\xe3\xe8\\!_37_\xc7\xe8\xec\xe0_2025\\JamClub\\\xc4\xee\xea\xf2\xee\xf0 \xd1\xf2\xee\xf3\xed\\\xd2\xc2-4\\JamClub_Dr_Stone_Science_Future_10_1080p_HEVC.mkv" -i "F:\\\xc0\xed\xe8\xec\xe5\\\xce\xed\xe3\xee\xe8\xed\xe3\xe8\\!_37_\xc7\xe8\xec\xe0_2025\\JamClub\\\xc4\xee\xea\xf2\xee\xf0 \xd1\xf2\xee\xf3\xed\\\xd2\xc2-4\\JamClub_Dr_Stone_Science_Future_10_1080p.mp4" -lavfi "[0:v]settb=AVTB,setpts=PTS-STARTPTS,format=pix_fmts=yuv420p10le,fps=24000/1001,scale=1920:1080:flags=bicubic:out_range=limited:out_chroma_loc=left,colorspace=format=yuv420p10:range=tv:primaries=bt709:trc=bt709:space=bt709:fast=0[main];[1:v]settb=AVTB,setpts=PTS-STARTPTS,format=pix_fmts=yuv420p,fps=24000/1001,scale=1920:1080:flags=bicubic:out_range=limited:out_chroma_loc=left,colorspace=format=yuv420p:irange=tv:iprimaries=bt709:itrc=bt709:ispace=bt709:range=tv:primaries=bt709:trc=bt709:space=bt709:fast=0[ref];[main][ref]ssim=eof_action=endall:stats_file='D\\:/Convert/FFMetrics/logs/ssim_logfile-6.txt'" -f null -
Input #0, matroska,webm, from 'F:\Аниме\Онгоинги\!_37_Зима_2025\JamClub\Доктор Стоун\ТВ-4\JamClub_Dr_Stone_Science_Future_10_1080p_HEVC.mkv':
  Metadata:
    COMPATIBLE_BRANDS: isomiso2avc1mp41
    MAJOR_BRAND     : isom
    MINOR_VERSION   : 512
    ENCODER         : Lavf61.7.100
  Duration: 00:24:23.34, start: -0.001000, bitrate: 1730 kb/s
  Stream #0:0: Video: hevc (Main 10), yuv420p10le(tv, bt709, progressive), 1920x1080 [SAR 1:1 DAR 16:9], 23.98 fps, 23.98 tbr, 1k tbn (default)
      Metadata:
        HANDLER_NAME    : VideoHandler
        VENDOR_ID       : [0][0][0][0]
        ENCODER         : Lavc61.19.100 libx265
        BPS             : 1532818
        DURATION        : 00:24:22.210708333
        NUMBER_OF_FRAMES: 35058
        NUMBER_OF_BYTES : 280162741
        _STATISTICS_WRITING_APP: mkvpropedit v94.0 ('Initiate') 64-bit
        _STATISTICS_WRITING_DATE_UTC: 2025-09-30 18:15:52
        _STATISTICS_TAGS: BPS DURATION NUMBER_OF_FRAMES NUMBER_OF_BYTES
  Stream #0:1(eng): Audio: aac (LC), 48000 Hz, stereo, fltp (default)
      Metadata:
        HANDLER_NAME    : SoundHandler
        VENDOR_ID       : [0][0][0][0]
        ENCODER         : Lavc61.19.100 aac
        BPS             : 194397
        DURATION        : 00:24:23.299000000
        NUMBER_OF_FRAMES: 68593
        NUMBER_OF_BYTES : 35557692
        _STATISTICS_WRITING_APP: mkvpropedit v94.0 ('Initiate') 64-bit
        _STATISTICS_WRITING_DATE_UTC: 2025-09-30 18:15:52
        _STATISTICS_TAGS: BPS DURATION NUMBER_OF_FRAMES NUMBER_OF_BYTES
Input #1, mov,mp4,m4a,3gp,3g2,mj2, from 'F:\Аниме\Онгоинги\!_37_Зима_2025\JamClub\Доктор Стоун\ТВ-4\JamClub_Dr_Stone_Science_Future_10_1080p.mp4':
  Metadata:
    major_brand     : isom
    minor_version   : 512
    compatible_brands: isomiso2avc1mp41
    encoder         : Lavf60.16.100
  Duration: 00:24:23.32, start: 0.000000, bitrate: 4580 kb/s
  Stream #1:0[0x1](und): Video: h264 (High) (avc1 / 0x31637661), yuv420p(progressive), 1920x1080 [SAR 1:1 DAR 16:9], 4386 kb/s, 23.98 fps, 23.98 tbr, 90k tbn (default)
      Metadata:
        handler_name    : VideoHandler
        vendor_id       : [0][0][0][0]
  Stream #1:1[0x2](eng): Audio: aac (LC) (mp4a / 0x6134706D), 48000 Hz, stereo, fltp, 191 kb/s (default)
      Metadata:
        handler_name    : SoundHandler
        vendor_id       : [0][0][0][0]
Stream mapping:
  Stream #0:0 (hevc) -> settb:default
  Stream #1:0 (h264) -> settb:default
  ssim:default -> Stream #0:0 (wrapped_avframe)
  Stream #0:1 -> #0:1 (aac (native) -> pcm_s16le (native))
Output #0, null, to 'pipe:':
  Metadata:
    COMPATIBLE_BRANDS: isomiso2avc1mp41
    MAJOR_BRAND     : isom
    MINOR_VERSION   : 512
    encoder         : Lavf61.7.100
  Stream #0:0: Video: wrapped_avframe, yuv420p10le(tv, bt709, progressive), 1920x1080 [SAR 1:1 DAR 16:9], q=2-31, 200 kb/s, 23.98 fps, 23.98 tbn
      Metadata:
        encoder         : Lavc61.19.100 wrapped_avframe
  Stream #0:1(eng): Audio: pcm_s16le, 48000 Hz, stereo, s16, 1536 kb/s (default)
      Metadata:
        HANDLER_NAME    : SoundHandler
        VENDOR_ID       : [0][0][0][0]
        _STATISTICS_TAGS: BPS DURATION NUMBER_OF_FRAMES NUMBER_OF_BYTES
        BPS             : 194397
        DURATION        : 00:24:23.299000000
        NUMBER_OF_FRAMES: 68593
        NUMBER_OF_BYTES : 35557692
        _STATISTICS_WRITING_APP: mkvpropedit v94.0 ('Initiate') 64-bit
        _STATISTICS_WRITING_DATE_UTC: 2025-09-30 18:15:52
        encoder         : Lavc61.19.100 pcm_s16le
frame=   99 fps=0.0 q=-0.0 size=N/A time=00:00:04.12 bitrate=N/A speed=8.06x    frame=  233 fps=227 q=-0.0 size=N/A time=00:00:09.71 bitrate=N/A speed=9.48x    frame=  392 fps=253 q=-0.0 size=N/A time=00:00:16.34 bitrate=N/A speed=10.5x    frame=  563 fps=273 q=-0.0 size=N/A time=00:00:23.48 bitrate=N/A speed=11.4x    frame=  750 fps=291 q=-0.0 size=N/A time=00:00:31.28 bitrate=N/A speed=12.2x    frame=  935 fps=303 q=-0.0 size=N/A time=00:00:38.99 bitrate=N/A speed=12.6x    frame= 1115 fps=309 q=-0.0 size=N/A time=00:00:46.50 bitrate=N/A speed=12.9x    frame= 1265 fps=307 q=-0.0 size=N/A time=00:00:52.76 bitrate=N/A speed=12.8x    frame= 1447 fps=312 q=-0.0 size=N/A time=00:01:00.35 bitrate=N/A speed=  13x    frame= 1619 fps=315 q=-0.0 size=N/A time=00:01:07.52 bitrate=N/A speed=13.1x    frame= 1814 fps=320 q=-0.0 size=N/A time=00:01:15.65 bitrate=N/A speed=13.3x    frame= 1993 fps=322 q=-0.0 size=N/A time=00:01:23.12 bitrate=N/A speed=13.4x    frame= 2179 fps=325 q=-0.0 size=N/A time=00:01:30.88 bitrate=N/A speed=13.6x    frame= 2383 fps=330 q=-0.0 size=N/A time=00:01:39.39 bitrate=N/A speed=13.8x    frame= 2571 fps=332 q=-0.0 size=N/A time=00:01:47.23 bitrate=N/A speed=13.9x    frame= 2748 fps=333 q=-0.0 size=N/A time=00:01:54.61 bitrate=N/A speed=13.9x    frame= 2925 fps=334 q=-0.0 size=N/A time=00:02:01.99 bitrate=N/A speed=13.9x    frame= 3105 fps=334 q=-0.0 size=N/A time=00:02:09.50 bitrate=N/A speed=13.9x    frame= 3242 fps=331 q=-0.0 size=N/A time=00:02:15.21 bitrate=N/A speed=13.8x    frame= 3363 fps=326 q=-0.0 size=N/A time=00:02:20.26 bitrate=N/A speed=13.6x    frame= 3504 fps=323 q=-0.0 size=N/A time=00:02:26.14 bitrate=N/A speed=13.5x    frame= 3637 fps=320 q=-0.0 size=N/A time=00:02:31.69 bitrate=N/A speed=13.4x    frame= 3764 fps=317 q=-0.0 size=N/A time=00:02:36.99 bitrate=N/A speed=13.2x    frame= 3898 fps=315 q=-0.0 size=N/A time=00:02:42.57 bitrate=N/A speed=13.1x    frame= 4059 fps=315 q=-0.0 size=N/A time=00:02:49.29 bitrate=N/A speed=13.1x    frame= 4185 fps=312 q=-0.0 size=N/A time=00:02:54.54 bitrate=N/A speed=  13x    frame= 4314 fps=310 q=-0.0 size=N/A time=00:02:59.92 bitrate=N/A speed=12.9x    frame= 4444 fps=308 q=-0.0 size=N/A time=00:03:05.35 bitrate=N/A speed=12.8x    frame= 4574 fps=306 q=-0.0 size=N/A time=00:03:10.77 bitrate=N/A speed=12.8x    frame= 4678 fps=302 q=-0.0 size=N/A time=00:03:15.11 bitrate=N/A speed=12.6x    frame= 4813 fps=301 q=-0.0 size=N/A time=00:03:20.74 bitrate=N/A speed=12.5x    frame= 4981 fps=302 q=-0.0 size=N/A time=00:03:27.74 bitrate=N/A speed=12.6x    frame= 5099 fps=299 q=-0.0 size=N/A time=00:03:32.67 bitrate=N/A speed=12.5x    frame= 5263 fps=300 q=-0.0 size=N/A time=00:03:39.51 bitrate=N/A speed=12.5x    frame= 5442 fps=301 q=-0.0 size=N/A time=00:03:46.97 bitrate=N/A speed=12.6x    frame= 5626 fps=303 q=-0.0 size=N/A time=00:03:54.65 bitrate=N/A speed=12.6x    frame= 5822 fps=305 q=-0.0 size=N/A time=00:04:02.82 bitrate=N/A speed=12.7x    frame= 5997 fps=306 q=-0.0 size=N/A time=00:04:10.12 bitrate=N/A speed=12.7x    frame= 6179 fps=307 q=-0.0 size=N/A time=00:04:17.71 bitrate=N/A speed=12.8x    frame= 6374 fps=308 q=-0.0 size=N/A time=00:04:25.84 bitrate=N/A speed=12.9x    frame= 6554 fps=309 q=-0.0 size=N/A time=00:04:33.35 bitrate=N/A speed=12.9x    frame= 6735 fps=310 q=-0.0 size=N/A time=00:04:40.90 bitrate=N/A speed=12.9x    frame= 6922 fps=311 q=-0.0 size=N/A time=00:04:48.70 bitrate=N/A speed=  13x    frame= 7100 fps=312 q=-0.0 size=N/A time=00:04:56.12 bitrate=N/A speed=  13x    frame= 7279 fps=313 q=-0.0 size=N/A time=00:05:03.59 bitrate=N/A speed=13.1x    frame= 7447 fps=313 q=-0.0 size=N/A time=00:05:10.60 bitrate=N/A speed=13.1x    frame= 7631 fps=314 q=-0.0 size=N/A time=00:05:18.27 bitrate=N/A speed=13.1x    frame= 7821 fps=315 q=-0.0 size=N/A time=00:05:26.20 bitrate=N/A speed=13.2x    frame= 8009 fps=316 q=-0.0 size=N/A time=00:05:34.04 bitrate=N/A speed=13.2x    frame= 8200 fps=318 q=-0.0 size=N/A time=00:05:42.00 bitrate=N/A speed=13.2x    frame= 8398 fps=319 q=-0.0 size=N/A time=00:05:50.26 bitrate=N/A speed=13.3x    frame= 8543 fps=318 q=-0.0 size=N/A time=00:05:56.31 bitrate=N/A speed=13.3x    frame= 8716 fps=318 q=-0.0 size=N/A time=00:06:03.52 bitrate=N/A speed=13.3x    frame= 8891 fps=319 q=-0.0 size=N/A time=00:06:10.82 bitrate=N/A speed=13.3x    frame= 9080 fps=320 q=-0.0 size=N/A time=00:06:18.71 bitrate=N/A speed=13.3x    frame= 9263 fps=320 q=-0.0 size=N/A time=00:06:26.34 bitrate=N/A speed=13.4x    frame= 9449 fps=321 q=-0.0 size=N/A time=00:06:34.10 bitrate=N/A speed=13.4x    frame= 9645 fps=322 q=-0.0 size=N/A time=00:06:42.27 bitrate=N/A speed=13.4x    frame= 9829 fps=323 q=-0.0 size=N/A time=00:06:49.95 bitrate=N/A speed=13.5x    frame=10013 fps=323 q=-0.0 size=N/A time=00:06:57.62 bitrate=N/A speed=13.5x    frame=10202 fps=324 q=-0.0 size=N/A time=00:07:05.50 bitrate=N/A speed=13.5x    frame=10383 fps=324 q=-0.0 size=N/A time=00:07:13.05 bitrate=N/A speed=13.5x    frame=10574 fps=325 q=-0.0 size=N/A time=00:07:21.02 bitrate=N/A speed=13.6x    frame=10715 fps=324 q=-0.0 size=N/A time=00:07:26.90 bitrate=N/A speed=13.5x    frame=10864 fps=324 q=-0.0 size=N/A time=00:07:33.11 bitrate=N/A speed=13.5x    frame=11046 fps=324 q=-0.0 size=N/A time=00:07:40.71 bitrate=N/A speed=13.5x    frame=11199 fps=324 q=-0.0 size=N/A time=00:07:47.09 bitrate=N/A speed=13.5x    frame=11372 fps=324 q=-0.0 size=N/A time=00:07:54.30 bitrate=N/A speed=13.5x    frame=11524 fps=324 q=-0.0 size=N/A time=00:08:00.64 bitrate=N/A speed=13.5x    frame=11706 fps=324 q=-0.0 size=N/A time=00:08:08.23 bitrate=N/A speed=13.5x    frame=11898 fps=325 q=-0.0 size=N/A time=00:08:16.24 bitrate=N/A speed=13.5x    frame=12072 fps=325 q=-0.0 size=N/A time=00:08:23.50 bitrate=N/A speed=13.5x    frame=12225 fps=324 q=-0.0 size=N/A time=00:08:29.88 bitrate=N/A speed=13.5x    frame=12398 fps=325 q=-0.0 size=N/A time=00:08:37.09 bitrate=N/A speed=13.5x    frame=12585 fps=325 q=-0.0 size=N/A time=00:08:44.89 bitrate=N/A speed=13.6x    frame=12770 fps=325 q=-0.0 size=N/A time=00:08:52.61 bitrate=N/A speed=13.6x    frame=12959 fps=326 q=-0.0 size=N/A time=00:09:00.49 bitrate=N/A speed=13.6x    frame=13151 fps=327 q=-0.0 size=N/A time=00:09:08.50 bitrate=N/A speed=13.6x    frame=13338 fps=327 q=-0.0 size=N/A time=00:09:16.30 bitrate=N/A speed=13.6x    frame=13511 fps=327 q=-0.0 size=N/A time=00:09:23.52 bitrate=N/A speed=13.6x    frame=13686 fps=327 q=-0.0 size=N/A time=00:09:30.82 bitrate=N/A speed=13.7x    frame=13868 fps=328 q=-0.0 size=N/A time=00:09:38.41 bitrate=N/A speed=13.7x    frame=14055 fps=328 q=-0.0 size=N/A time=00:09:46.21 bitrate=N/A speed=13.7x    frame=14227 fps=328 q=-0.0 size=N/A time=00:09:53.38 bitrate=N/A speed=13.7x    frame=14405 fps=328 q=-0.0 size=N/A time=00:10:00.80 bitrate=N/A speed=13.7x    frame=14610 fps=329 q=-0.0 size=N/A time=00:10:09.35 bitrate=N/A speed=13.7x    frame=14797 fps=330 q=-0.0 size=N/A time=00:10:17.15 bitrate=N/A speed=13.7x    frame=14948 fps=329 q=-0.0 size=N/A time=00:10:23.45 bitrate=N/A speed=13.7x    frame=15147 fps=330 q=-0.0 size=N/A time=00:10:31.75 bitrate=N/A speed=13.8x    frame=15318 fps=330 q=-0.0 size=N/A time=00:10:38.88 bitrate=N/A speed=13.8x    frame=15517 fps=330 q=-0.0 size=N/A time=00:10:47.18 bitrate=N/A speed=13.8x    frame=15709 fps=331 q=-0.0 size=N/A time=00:10:55.19 bitrate=N/A speed=13.8x    frame=15900 fps=331 q=-0.0 size=N/A time=00:11:03.16 bitrate=N/A speed=13.8x    frame=16078 fps=331 q=-0.0 size=N/A time=00:11:10.58 bitrate=N/A speed=13.8x    frame=16260 fps=332 q=-0.0 size=N/A time=00:11:18.17 bitrate=N/A speed=13.8x    frame=16459 fps=332 q=-0.0 size=N/A time=00:11:26.47 bitrate=N/A speed=13.9x    frame=16635 fps=332 q=-0.0 size=N/A time=00:11:33.81 bitrate=N/A speed=13.9x    frame=16824 fps=333 q=-0.0 size=N/A time=00:11:41.70 bitrate=N/A speed=13.9x    frame=17014 fps=333 q=-0.0 size=N/A time=00:11:49.62 bitrate=N/A speed=13.9x    frame=17182 fps=333 q=-0.0 size=N/A time=00:11:56.63 bitrate=N/A speed=13.9x    frame=17365 fps=333 q=-0.0 size=N/A time=00:12:04.26 bitrate=N/A speed=13.9x    frame=17553 fps=333 q=-0.0 size=N/A time=00:12:12.10 bitrate=N/A speed=13.9x    frame=17736 fps=334 q=-0.0 size=N/A time=00:12:19.73 bitrate=N/A speed=13.9x    frame=17921 fps=334 q=-0.0 size=N/A time=00:12:27.45 bitrate=N/A speed=13.9x    frame=18099 fps=334 q=-0.0 size=N/A time=00:12:34.87 bitrate=N/A speed=13.9x    frame=18297 fps=334 q=-0.0 size=N/A time=00:12:43.13 bitrate=N/A speed=13.9x    frame=18482 fps=335 q=-0.0 size=N/A time=00:12:50.85 bitrate=N/A speed=  14x    frame=18676 fps=335 q=-0.0 size=N/A time=00:12:58.94 bitrate=N/A speed=  14x    frame=18872 fps=335 q=-0.0 size=N/A time=00:13:07.11 bitrate=N/A speed=  14x    frame=19061 fps=336 q=-0.0 size=N/A time=00:13:15.00 bitrate=N/A speed=  14x    frame=19242 fps=336 q=-0.0 size=N/A time=00:13:22.55 bitrate=N/A speed=  14x    frame=19427 fps=336 q=-0.0 size=N/A time=00:13:30.26 bitrate=N/A speed=  14x    frame=19617 fps=336 q=-0.0 size=N/A time=00:13:38.19 bitrate=N/A speed=  14x    frame=19804 fps=336 q=-0.0 size=N/A time=00:13:45.99 bitrate=N/A speed=  14x    frame=19982 fps=336 q=-0.0 size=N/A time=00:13:53.41 bitrate=N/A speed=  14x    frame=20172 fps=337 q=-0.0 size=N/A time=00:14:01.34 bitrate=N/A speed=  14x    frame=20357 fps=337 q=-0.0 size=N/A time=00:14:09.05 bitrate=N/A speed=14.1x    frame=20555 fps=337 q=-0.0 size=N/A time=00:14:17.31 bitrate=N/A speed=14.1x    frame=20739 fps=337 q=-0.0 size=N/A time=00:14:24.98 bitrate=N/A speed=14.1x    frame=20930 fps=338 q=-0.0 size=N/A time=00:14:32.95 bitrate=N/A speed=14.1x    frame=21120 fps=338 q=-0.0 size=N/A time=00:14:40.88 bitrate=N/A speed=14.1x    frame=21308 fps=338 q=-0.0 size=N/A time=00:14:48.72 bitrate=N/A speed=14.1x    frame=21492 fps=338 q=-0.0 size=N/A time=00:14:56.39 bitrate=N/A speed=14.1x    frame=21686 fps=339 q=-0.0 size=N/A time=00:15:04.48 bitrate=N/A speed=14.1x    frame=21877 fps=339 q=-0.0 size=N/A time=00:15:12.45 bitrate=N/A speed=14.1x    frame=22080 fps=339 q=-0.0 size=N/A time=00:15:20.92 bitrate=N/A speed=14.2x    frame=22264 fps=339 q=-0.0 size=N/A time=00:15:28.59 bitrate=N/A speed=14.2x    frame=22459 fps=340 q=-0.0 size=N/A time=00:15:36.72 bitrate=N/A speed=14.2x    frame=22658 fps=340 q=-0.0 size=N/A time=00:15:45.02 bitrate=N/A speed=14.2x    frame=22844 fps=340 q=-0.0 size=N/A time=00:15:52.78 bitrate=N/A speed=14.2x    frame=23031 fps=340 q=-0.0 size=N/A time=00:16:00.58 bitrate=N/A speed=14.2x    frame=23217 fps=341 q=-0.0 size=N/A time=00:16:08.34 bitrate=N/A speed=14.2x    frame=23409 fps=341 q=-0.0 size=N/A time=00:16:16.35 bitrate=N/A speed=14.2x    frame=23597 fps=341 q=-0.0 size=N/A time=00:16:24.19 bitrate=N/A speed=14.2x    frame=23783 fps=341 q=-0.0 size=N/A time=00:16:31.94 bitrate=N/A speed=14.2x    frame=23942 fps=341 q=-0.0 size=N/A time=00:16:38.58 bitrate=N/A speed=14.2x    frame=24124 fps=341 q=-0.0 size=N/A time=00:16:46.17 bitrate=N/A speed=14.2x    frame=24315 fps=341 q=-0.0 size=N/A time=00:16:54.13 bitrate=N/A speed=14.2x    frame=24511 fps=342 q=-0.0 size=N/A time=00:17:02.31 bitrate=N/A speed=14.2x    frame=24703 fps=342 q=-0.0 size=N/A time=00:17:10.32 bitrate=N/A speed=14.3x    frame=24891 fps=342 q=-0.0 size=N/A time=00:17:18.16 bitrate=N/A speed=14.3x    frame=25069 fps=342 q=-0.0 size=N/A time=00:17:25.58 bitrate=N/A speed=14.3x    frame=25255 fps=342 q=-0.0 size=N/A time=00:17:33.34 bitrate=N/A speed=14.3x    frame=25448 fps=342 q=-0.0 size=N/A time=00:17:41.39 bitrate=N/A speed=14.3x    frame=25595 fps=342 q=-0.0 size=N/A time=00:17:47.52 bitrate=N/A speed=14.3x    frame=25749 fps=342 q=-0.0 size=N/A time=00:17:53.94 bitrate=N/A speed=14.2x    frame=25941 fps=342 q=-0.0 size=N/A time=00:18:01.95 bitrate=N/A speed=14.3x    frame=26124 fps=342 q=-0.0 size=N/A time=00:18:09.58 bitrate=N/A speed=14.3x    frame=26315 fps=342 q=-0.0 size=N/A time=00:18:17.55 bitrate=N/A speed=14.3x    frame=26481 fps=342 q=-0.0 size=N/A time=00:18:24.47 bitrate=N/A speed=14.3x    frame=26677 fps=342 q=-0.0 size=N/A time=00:18:32.65 bitrate=N/A speed=14.3x    frame=26862 fps=342 q=-0.0 size=N/A time=00:18:40.36 bitrate=N/A speed=14.3x    frame=27051 fps=342 q=-0.0 size=N/A time=00:18:48.25 bitrate=N/A speed=14.3x    frame=27237 fps=343 q=-0.0 size=N/A time=00:18:56.00 bitrate=N/A speed=14.3x    frame=27427 fps=343 q=-0.0 size=N/A time=00:19:03.93 bitrate=N/A speed=14.3x    frame=27608 fps=343 q=-0.0 size=N/A time=00:19:11.48 bitrate=N/A speed=14.3x    frame=27802 fps=343 q=-0.0 size=N/A time=00:19:19.57 bitrate=N/A speed=14.3x    frame=27996 fps=343 q=-0.0 size=N/A time=00:19:27.66 bitrate=N/A speed=14.3x    frame=28176 fps=343 q=-0.0 size=N/A time=00:19:35.17 bitrate=N/A speed=14.3x    frame=28356 fps=343 q=-0.0 size=N/A time=00:19:42.68 bitrate=N/A speed=14.3x    frame=28549 fps=343 q=-0.0 size=N/A time=00:19:50.73 bitrate=N/A speed=14.3x    frame=28752 fps=344 q=-0.0 size=N/A time=00:19:59.19 bitrate=N/A speed=14.3x    frame=28943 fps=344 q=-0.0 size=N/A time=00:20:07.16 bitrate=N/A speed=14.3x    frame=29132 fps=344 q=-0.0 size=N/A time=00:20:15.04 bitrate=N/A speed=14.3x    frame=29322 fps=344 q=-0.0 size=N/A time=00:20:22.97 bitrate=N/A speed=14.4x    frame=29513 fps=344 q=-0.0 size=N/A time=00:20:30.93 bitrate=N/A speed=14.4x    frame=29697 fps=344 q=-0.0 size=N/A time=00:20:38.61 bitrate=N/A speed=14.4x    frame=29881 fps=344 q=-0.0 size=N/A time=00:20:46.28 bitrate=N/A speed=14.4x    frame=30062 fps=344 q=-0.0 size=N/A time=00:20:53.83 bitrate=N/A speed=14.4x    frame=30235 fps=344 q=-0.0 size=N/A time=00:21:01.05 bitrate=N/A speed=14.4x    frame=30401 fps=344 q=-0.0 size=N/A time=00:21:07.97 bitrate=N/A speed=14.4x    frame=30573 fps=344 q=-0.0 size=N/A time=00:21:15.14 bitrate=N/A speed=14.4x    frame=30703 fps=344 q=-0.0 size=N/A time=00:21:20.57 bitrate=N/A speed=14.3x    frame=30875 fps=344 q=-0.0 size=N/A time=00:21:27.74 bitrate=N/A speed=14.3x    frame=31060 fps=344 q=-0.0 size=N/A time=00:21:35.46 bitrate=N/A speed=14.3x    frame=31256 fps=344 q=-0.0 size=N/A time=00:21:43.63 bitrate=N/A speed=14.3x    frame=31428 fps=344 q=-0.0 size=N/A time=00:21:50.80 bitrate=N/A speed=14.3x    frame=31606 fps=344 q=-0.0 size=N/A time=00:21:58.23 bitrate=N/A speed=14.3x    frame=31796 fps=344 q=-0.0 size=N/A time=00:22:06.15 bitrate=N/A speed=14.3x    frame=31975 fps=344 q=-0.0 size=N/A time=00:22:13.62 bitrate=N/A speed=14.4x    frame=32135 fps=344 q=-0.0 size=N/A time=00:22:20.29 bitrate=N/A speed=14.3x    frame=32284 fps=344 q=-0.0 size=N/A time=00:22:26.51 bitrate=N/A speed=14.3x    frame=32435 fps=343 q=-0.0 size=N/A time=00:22:32.80 bitrate=N/A speed=14.3x    frame=32616 fps=343 q=-0.0 size=N/A time=00:22:40.35 bitrate=N/A speed=14.3x    frame=32801 fps=343 q=-0.0 size=N/A time=00:22:48.07 bitrate=N/A speed=14.3x    frame=32980 fps=343 q=-0.0 size=N/A time=00:22:55.54 bitrate=N/A speed=14.3x    frame=33152 fps=343 q=-0.0 size=N/A time=00:23:02.71 bitrate=N/A speed=14.3x    frame=33316 fps=343 q=-0.0 size=N/A time=00:23:09.55 bitrate=N/A speed=14.3x    frame=33485 fps=343 q=-0.0 size=N/A time=00:23:16.60 bitrate=N/A speed=14.3x    frame=33657 fps=343 q=-0.0 size=N/A time=00:23:23.77 bitrate=N/A speed=14.3x    frame=33824 fps=343 q=-0.0 size=N/A time=00:23:30.74 bitrate=N/A speed=14.3x    frame=33987 fps=343 q=-0.0 size=N/A time=00:23:37.54 bitrate=N/A speed=14.3x    frame=34155 fps=343 q=-0.0 size=N/A time=00:23:44.54 bitrate=N/A speed=14.3x    frame=34329 fps=343 q=-0.0 size=N/A time=00:23:51.80 bitrate=N/A speed=14.3x    frame=34463 fps=342 q=-0.0 size=N/A time=00:23:57.39 bitrate=N/A speed=14.3x    frame=34609 fps=342 q=-0.0 size=N/A time=00:24:03.48 bitrate=N/A speed=14.3x    frame=34767 fps=342 q=-0.0 size=N/A time=00:24:10.07 bitrate=N/A speed=14.3x    frame=34922 fps=342 q=-0.0 size=N/A time=00:24:16.53 bitrate=N/A speed=14.2x    [Parsed_ssim_12 @ 000001e3fb0a8200] SSIM Y:0.994259 (22.410271) U:0.993527 (21.888912) V:0.993798 (22.074705) All:0.994060 (22.262350)
[out#0/null @ 000001e3f5eff200] video:15064KiB audio:274372KiB subtitle:0KiB other streams:0KiB global headers:0KiB muxing overhead: unknown
frame=35058 fps=342 q=-0.0 Lsize=N/A time=00:24:22.21 bitrate=N/A speed=14.3x    
